# xmcd CD database file
#
# Track frame offsets:
#	150
#	28996
#	53067
#	74907
#	101978
#	114899
#	146575
#	183858
#	205795
#	218016
#
# Disc length: 3082 seconds
#
# Revision: 0
# Processed by: cddbd v1.5.1PL2 Copyright (c) Steve Scherf et al.
# Submitted via: CDex 1.51
#
DISCID=970c080a
DTITLE=Jean-Philippe Muvien - Flench Wok
DYEAR=2005
DGENRE=Jazz
TTITLE0=Flench Wok
TTITLE1=Kotor
TTITLE2=Lou And The Pote Agé
TTITLE3=Vive Les Jongleurs
TTITLE4=Arghh Arghh !!!
TTITLE5=L.
TTITLE6=Palindrome
TTITLE7=Mon Petit Lapin
TTITLE8=Toi Moi, Lui
TTITLE9=Westminster
EXTD=YEAR: 2005
EXTT0=
EXTT1=
EXTT2=
EXTT3=
EXTT4=
EXTT5=
EXTT6=
EXTT7=
EXTT8=
EXTT9=
PLAYORDER=
